<?xml version="1.0" encoding="utf-8"?>
<!-- Generator: Adobe Illustrator 25.4.1, SVG Export Plug-In . SVG Version: 6.00 Build 0)  -->
<svg version="1.1" id="Layer_1" xmlns="http://www.w3.org/2000/svg" xmlns:xlink="http://www.w3.org/1999/xlink" x="0px" y="0px"
	 width="820px" height="630.404px" viewBox="0 0 820 630.404" style="enable-background:new 0 0 820 630.404;" xml:space="preserve"
	>
<style type="text/css">
	.st0{display:none;}
	.st1{display:inline;fill:#F540DA;}
	.st2{font-family:'BlackJack';}
	.st3{font-size:54.6208px;}
	.st4{fill:#F5F5F5;}
	.st5{fill:none;}
	.st6{opacity:0.1;}
	.st7{fill:none;stroke:#333333;stroke-width:1.0808;stroke-linecap:round;stroke-linejoin:round;stroke-miterlimit:10;}
	.st8{fill:none;stroke:#333333;}
	.st9{fill:#1CD0BB;}
	.st10{fill:#3A8DDE;}
	.st11{display:inline;fill:#1CD0BB;stroke:#231F20;}
	.st12{display:inline;fill:#318DDE;stroke:#231F20;}
</style>
<g id="draft_-_needed_for_png_proof" class="st0">
	<text transform="matrix(0.9934 -0.115 0.115 0.9934 689.1864 602.7348)" class="st1 st2 st3">draft</text>
</g>
<g id="GUIDE">
	<rect x="84.882" y="122.658" class="st4" width="670.26" height="387.842"/>
	<g>
		<path class="st5" d="M753.181,512.361H86.026c-1.379,0-2.507-1.128-2.507-2.507V123.836c0-1.379,1.128-2.507,2.507-2.507h667.155
			c1.379,0,2.507,1.128,2.507,2.507v386.018C755.688,511.233,754.56,512.361,753.181,512.361z"/>
	</g>
	<g class="st6">
		<g>
			<line class="st7" x1="86.013" y1="467.181" x2="754.245" y2="467.181"/>
		</g>
		<g>
			<line class="st7" x1="86.013" y1="424.541" x2="754.245" y2="424.541"/>
		</g>
		<g>
			<line class="st7" x1="86.013" y1="381.9" x2="754.245" y2="381.9"/>
		</g>
		<g>
			<line class="st7" x1="86.013" y1="339.259" x2="754.245" y2="339.259"/>
		</g>
		<g>
			<line class="st7" x1="86.013" y1="296.619" x2="754.245" y2="296.619"/>
		</g>
		<g>
			<line class="st7" x1="86.013" y1="253.978" x2="754.245" y2="253.978"/>
		</g>
		<g>
			<line class="st7" x1="86.013" y1="211.338" x2="754.245" y2="211.338"/>
		</g>
		<g>
			<line class="st7" x1="86.013" y1="168.697" x2="754.245" y2="168.697"/>
		</g>
	</g>
</g>
<g id="Layer_6">
	<g>
		<line class="st8" x1="121.13" y1="319.898" x2="121.13" y2="406.358"/>
		<rect x="111.96" y="365.4" class="st9" width="18.339" height="35.416"/>
	</g>
	<g>
		<line class="st8" x1="148.493" y1="344.062" x2="148.493" y2="411.679"/>
		<rect x="139.323" y="368.877" class="st10" width="18.339" height="13.974"/>
	</g>
	<g>
		<line class="st8" x1="175.856" y1="366.897" x2="175.856" y2="408.686"/>
		<rect x="166.687" y="381.689" class="st10" width="18.339" height="9.642"/>
	</g>
	<g>
		<line class="st8" x1="257.946" y1="372.217" x2="257.946" y2="431.077"/>
		<rect x="248.776" y="384.373" class="st10" width="18.339" height="10.283"/>
	</g>
	<g>
		<line class="st8" x1="340.036" y1="285.646" x2="340.036" y2="458.096"/>
		<rect x="330.866" y="305.893" class="st10" width="18.339" height="16.435"/>
	</g>
	<g>
		<line class="st8" x1="394.763" y1="257.574" x2="394.763" y2="284.094"/>
		<rect x="385.593" y="268.648" class="st9" width="18.339" height="6.044"/>
	</g>
	<g>
		<line class="st8" x1="422.126" y1="230.336" x2="422.126" y2="263.144"/>
		<rect x="412.956" y="244.554" class="st9" width="18.339" height="18.619"/>
	</g>
	<g>
		<line class="st8" x1="367.399" y1="272.427" x2="367.399" y2="335.139"/>
		<rect x="358.23" y="273.99" class="st9" width="18.339" height="50.168"/>
	</g>
	<g>
		<line class="st8" x1="449.489" y1="241.612" x2="449.489" y2="312.443"/>
		<rect x="440.32" y="243.729" class="st10" width="18.339" height="65.351"/>
	</g>
	<g>
		<line class="st8" x1="504.216" y1="258.156" x2="504.216" y2="344.616"/>
		<rect x="495.046" y="264.014" class="st9" width="18.339" height="43.88"/>
	</g>
	<g>
		<line class="st8" x1="531.579" y1="208.773" x2="531.579" y2="267.55"/>
		<rect x="522.409" y="253.539" class="st9" width="18.339" height="14.869"/>
	</g>
	<g>
		<line class="st8" x1="558.942" y1="249.26" x2="558.942" y2="331.814"/>
		<rect x="549.773" y="251.446" class="st10" width="18.339" height="29.706"/>
	</g>
	<g>
		<line class="st8" x1="586.306" y1="233.963" x2="586.306" y2="311.612"/>
		<rect x="577.136" y="281.099" class="st10" width="18.339" height="18.177"/>
	</g>
	<g>
		<line class="st8" x1="613.669" y1="287.087" x2="613.669" y2="415.198"/>
		<rect x="604.499" y="292.737" class="st10" width="18.339" height="57.233"/>
	</g>
	<g>
		<line class="st8" x1="641.032" y1="224.902" x2="641.032" y2="378.037"/>
		<rect x="631.863" y="300.51" class="st9" width="18.339" height="47.466"/>
	</g>
	<g>
		<line class="st8" x1="668.396" y1="193.393" x2="668.396" y2="306.873"/>
		<rect x="659.226" y="195.53" class="st9" width="18.339" height="101.235"/>
	</g>
	<g>
		<line class="st8" x1="695.759" y1="187.861" x2="695.759" y2="256.493"/>
		<rect x="686.589" y="196.86" class="st10" width="18.339" height="22.159"/>
	</g>
	<g>
		<line class="st8" x1="723.165" y1="173.978" x2="723.08" y2="227.396"/>
		<rect x="713.953" y="194.033" class="st9" width="18.339" height="25.688"/>
	</g>
	<g>
		<line class="st8" x1="476.852" y1="256.659" x2="476.852" y2="324.248"/>
		<rect x="467.683" y="306.187" class="st10" width="18.339" height="4.892"/>
	</g>
	<g>
		<line class="st8" x1="285.309" y1="353.817" x2="285.309" y2="406.58"/>
		<rect x="276.14" y="388.725" class="st9" width="18.339" height="7.594"/>
	</g>
	<g>
		<line class="st8" x1="203.219" y1="385.63" x2="203.219" y2="476.635"/>
		<rect x="194.05" y="389.836" class="st10" width="18.339" height="61.49"/>
	</g>
	<g>
		<line class="st8" x1="230.583" y1="383.856" x2="230.583" y2="479.628"/>
		<rect x="221.413" y="385.684" class="st9" width="18.339" height="68.602"/>
	</g>
	<g>
		<line class="st8" x1="312.673" y1="300.61" x2="312.673" y2="397.158"/>
		<rect x="303.503" y="306.207" class="st9" width="18.339" height="79.63"/>
	</g>
</g>
<g id="candlestick" class="st0">
	<path id="apexcharts-candlestick-area-0" class="st11" d="M112.463,365.625h9.032v-45.386v45.386h9.032v34.783h-9.032v7.254v-7.254
		h-9.032v-35.389"/>
	<path id="apexcharts-candlestick-area-0_00000146483310739527844780000016409947668685605283_" class="st12" d="M138.549,369.159
		h9.032V344.42v24.739h9.032v13.207h-9.032v29.761v-29.761h-9.032v-13.812"/>
	<path id="apexcharts-candlestick-area-0_00000061438806747356209640000004847881151873066161_" class="st12" d="M166.434,382.179
		h9.032v-15.253v15.253h9.032v8.928h-9.032v17.485v-17.485h-9.032v-9.534"/>
	<path id="apexcharts-candlestick-area-0_00000058547052868069868370000002645977258385626276_" class="st12" d="M193.419,389.991
		h9.032v-4.65v4.65h9.032v61.382h-9.032v25.297v-25.297h-9.032v-61.988"/>
	<path id="apexcharts-candlestick-area-0_00000139994014845649872270000004822773504929585575_" class="st11" d="M221.304,385.527
		h9.032v-1.488v1.488h9.032v68.451h-9.032v26.041v-26.041h-9.032v-69.056"/>
	<path id="apexcharts-candlestick-area-0_00000067225973950536501990000005379649563249408400_" class="st12" d="M248.289,384.597
		h9.032v-12.09v12.09h9.032v10.044h-9.032v36.643v-36.643h-9.032v-10.65"/>
	<path id="apexcharts-candlestick-area-0_00000165955251662677230530000009920921307482270603_" class="st11" d="M276.174,389.247
		h9.032v-35.341v35.341h9.032v7.068h-9.032v10.416v-10.416h-9.032v-7.674"/>
	<path id="apexcharts-candlestick-area-0_00000094603981250295059110000000624683098301691836_" class="st11" d="M304.059,306.474
		h9.032v-5.952v5.952h9.032v79.425h-9.032v11.346v-11.346h-9.032v-80.031"/>
	<path id="apexcharts-candlestick-area-0_00000107560394362645827670000011193990757894220720_" class="st12" d="M331.044,306.288
		h9.032v-20.647v20.647h9.032v15.811h-9.032V458.07V322.099h-9.032v-16.416"/>
	<path id="apexcharts-candlestick-area-0_00000125584026381462975980000011293600765380757436_" class="st11" d="M358.929,273.737
		h9.032v-1.116v1.116h9.032v50.222h-9.032v11.346v-11.346h-9.032v-50.828"/>
	<path id="apexcharts-candlestick-area-0_00000061431251742279160610000016808744613126500278_" class="st11" d="M385.914,268.901
		h9.032v-11.16v11.16h9.032v5.022h-9.032v10.23v-10.23h-9.032v-5.628"/>
	<path id="apexcharts-candlestick-area-0_00000103263710663791440710000014362949484314550703_" class="st11" d="M413.799,244.906
		h9.032v-14.323v14.323h9.032v18.043h-9.032v0.372v-0.372h-9.032V244.3"/>
	<path id="apexcharts-candlestick-area-0_00000094594855954741893480000001902030405238423722_" class="st12" d="M441.684,243.79
		h9.032v-2.232v2.232h9.032v64.544h-9.032v4.092v-4.092h-9.032v-65.15"/>
	<path id="apexcharts-candlestick-area-0_00000079454325400896383360000008389201400397596565_" class="st12" d="M466.87,306.66
		h9.032v-50.036v50.036h9.032v3.72h-9.032v14.509V310.38h-9.032v-4.326"/>
	<path id="apexcharts-candlestick-area-0_00000148641492362670267060000010782162470598273453_" class="st11" d="M494.755,264.251
		h9.032v-5.952v5.952h9.032v43.34h-9.032v40.922V307.59h-9.032v-43.945"/>
	<path id="apexcharts-candlestick-area-0_00000073702963272206489610000012344350504724011191_" class="st11" d="M521.741,254.02
		h9.032v-45.386v45.386h9.032v13.765h-9.032v0.186v-0.186h-9.032v-14.37"/>
	<path id="apexcharts-candlestick-area-0_00000002382405935434700570000008678258998774457226_" class="st12" d="M549.625,251.788
		h9.032v-2.604v2.604h9.032v28.831h-9.032v51.338v-51.338h-9.032v-29.437"/>
	<path id="apexcharts-candlestick-area-0_00000006697283529358052690000012017155350541915030_" class="st12" d="M576.611,282.107
		h9.032v-48.176v48.176h9.032v17.113h-9.032v12.462V299.22h-9.032v-17.718"/>
	<path id="apexcharts-candlestick-area-0_00000023979533446129187650000014376355833026396590_" class="st12" d="M604.496,292.896
		h9.032v-5.952v5.952h9.032v56.732h-9.032v65.661v-65.661h-9.032V292.29"/>
	<path id="apexcharts-candlestick-area-0_00000179605397023562175240000017986451464159674009_" class="st11" d="M632.38,300.522
		h9.032v-75.705v75.705h9.032v47.432h-9.032v30.133v-30.133h-9.032v-48.038"/>
	<path id="apexcharts-candlestick-area-0_00000071550023381415918380000009448097458824138626_" class="st11" d="M659.366,195.614
		h9.032v-1.86v1.86h9.032v101.002h-9.032v10.416v-10.416h-9.032V195.008"/>
	<path id="apexcharts-candlestick-area-0_00000070829768078176913240000011795774156727563674_" class="st12" d="M687.251,197.474
		h9.032v-9.858v9.858h9.032v21.019h-9.032v37.945v-37.945h-9.032v-21.625"/>
	<path id="apexcharts-candlestick-area-0_00000051347450130931103140000018082871097650291389_" class="st11" d="M714.236,194.684
		h9.032v-20.647v20.647h9.032v24.739h-9.032v7.812v-7.812h-9.032v-25.345"/>
</g>
</svg>
